<?xml version="1.0" encoding="UTF-8" standalone="no"?>
<!DOCTYPE svg PUBLIC "-//W3C//DTD SVG 1.1//EN" "http://www.w3.org/Graphics/SVG/1.1/DTD/svg11.dtd">
<!-- Created with Vectornator (http://vectornator.io/) -->
<svg stroke-miterlimit="10" style="fill-rule:nonzero;clip-rule:evenodd;stroke-linecap:round;stroke-linejoin:round;" version="1.1" viewBox="0 0 24 24" xml:space="preserve" xmlns="http://www.w3.org/2000/svg" xmlns:xlink="http://www.w3.org/1999/xlink">
<defs/>
<g id="Untitled">
<path d="M22.1566 12.3736C22.1566 17.8965 17.6794 22.3736 12.1566 22.3736C6.63373 22.3736 2.15658 17.8965 2.15658 12.3736C2.15658 6.85077 6.63373 2.37362 12.1566 2.37362C17.6794 2.37362 22.1566 6.85077 22.1566 12.3736ZM12.5153 9.75612C11.5428 10.1611 9.59783 10.9986 6.68283 12.2686C6.21033 12.4561 5.96158 12.6411 5.93908 12.8211C5.90158 13.1249 6.28283 13.2449 6.80158 13.4086L7.02033 13.4774C7.53033 13.6436 8.21783 13.8374 8.57408 13.8449C8.89908 13.8524 9.26033 13.7199 9.65908 13.4449C12.3828 11.6061 13.7891 10.6774 13.8766 10.6574C13.9391 10.6424 14.0266 10.6249 14.0841 10.6774C14.1428 10.7286 14.1366 10.8274 14.1303 10.8536C14.0928 11.0149 12.5966 12.4049 11.8228 13.1249C11.5816 13.3499 11.4103 13.5086 11.3753 13.5449C11.2983 13.6236 11.2199 13.7011 11.1403 13.7774C10.6653 14.2349 10.3103 14.5774 11.1591 15.1374C11.5678 15.4074 11.8953 15.6286 12.2216 15.8511C12.5766 16.0936 12.9316 16.3349 13.3916 16.6374C13.5078 16.7124 13.6203 16.7936 13.7291 16.8711C14.1428 17.1661 14.5166 17.4311 14.9753 17.3886C15.2428 17.3636 15.5191 17.1136 15.6591 16.3636C15.9903 14.5924 16.6416 10.7561 16.7916 9.17487C16.8007 9.04342 16.7953 8.91136 16.7753 8.78112C16.7636 8.67602 16.7127 8.57919 16.6328 8.50987C16.5191 8.43135 16.3835 8.39068 16.2453 8.39362C15.8703 8.39987 15.2916 8.60112 12.5153 9.75612Z" fill="#000000" fill-rule="nonzero" opacity="1" stroke="none"/>
</g>
</svg>
